<?xml version="1.0" encoding="UTF-8"?>
<svg width="647px" height="98px" viewBox="0 0 647 98" version="1.1" xmlns="http://www.w3.org/2000/svg" xmlns:xlink="http://www.w3.org/1999/xlink">
    <!-- Generator: Sketch 63.1 (92452) - https://sketch.com -->
    <title>Group 35</title>
    <desc>Created with Sketch.</desc>
    <defs>
        <polygon id="path-1" points="0.330012 0.108936 35.983332 0.108936 35.983332 93.96 0.330012 93.96"></polygon>
        <polygon id="path-3" points="0 0.109008 50.950764 0.109008 50.950764 79.008768 0 79.008768"></polygon>
    </defs>
    <g id="Page-1" stroke="none" stroke-width="1" fill="none" fill-rule="evenodd">
        <g id="P3---1" transform="translate(-666.000000, -411.000000)">
            <g id="Group-35" transform="translate(666.000000, 411.000000)">
                <path d="M176.399856,42.502068 C174.214656,42.502068 171.453816,42.157188 165.128256,40.892508 L162.943056,42.731388 L162.943056,65.160468 C162.943056,77.696748 163.748016,78.961788 169.499376,80.456148 L169.959096,80.571708 L169.959096,82.872468 C168.003216,82.872468 158.341536,82.756908 154.661976,82.756908 C150.980616,82.756908 143.735256,82.872468 141.780816,82.872468 L141.780816,80.571708 L142.814736,80.227188 C146.265336,79.075908 146.956176,77.581548 146.956176,65.389788 L146.956176,44.916948 C146.956176,37.902348 146.151576,35.946108 143.045856,33.531588 L141.894576,32.611068 L141.894576,30.655188 L161.333136,26.055108 L162.943056,27.320148 L162.943056,38.706948 C168.808176,27.780228 171.108936,26.170668 174.904056,26.170668 C178.699176,26.170668 180.884376,28.815948 180.884376,33.300468 C180.884376,40.316868 178.814736,42.502068 176.399856,42.502068" id="Fill-1" fill="#191919"></path>
                <path d="M208.659204,82.872324 C206.934084,82.872324 199.802484,82.757124 196.007364,82.757124 C192.441564,82.757124 184.391244,82.872324 182.666124,82.872324 L182.666124,80.571564 L183.701844,80.227044 C186.805764,79.190964 187.612164,77.581404 187.612164,65.389644 L187.612164,45.032364 C187.612164,38.247084 186.692004,35.945964 183.701844,33.645204 L182.666124,32.840244 L182.666124,31.001364 L201.987684,26.399844 L203.828364,27.780444 L203.828364,65.389644 C203.828364,77.465844 204.633324,79.306524 207.509724,80.227044 L208.659204,80.571564 L208.659204,82.872324 Z" id="Fill-3" fill="#191919"></path>
                <path d="M234.764856,46.872864 C234.418536,34.796664 233.269056,29.965824 229.358376,29.965824 C225.563256,29.965824 223.378056,34.910424 223.493256,46.872864 L234.764856,46.872864 Z M223.838136,51.012864 C224.872416,65.389824 231.314616,73.900224 239.594256,73.900224 C241.665336,73.900224 244.080216,73.441584 248.221656,68.840064 L249.600456,70.910064 C243.390816,80.571744 237.984336,83.792664 229.589496,83.792664 C218.891736,83.792664 209.576376,74.246544 209.576376,56.303784 C209.576376,37.786824 220.387536,25.824384 232.348536,25.824384 C244.771056,25.824384 250.291296,35.256744 250.520976,51.012864 L223.838136,51.012864 Z" id="Fill-5" fill="#191919"></path>
                <path d="M303.307416,82.872324 C301.582296,82.872324 293.876496,82.757124 290.196936,82.757124 C286.631136,82.757124 280.075176,82.872324 278.120736,82.872324 L278.120736,80.571564 L278.580816,80.456364 C281.684736,79.651404 282.605256,77.236884 282.605256,67.230324 L282.605256,44.802684 C282.605256,38.015964 280.419696,35.370324 276.395616,35.370324 C275.359896,35.370324 274.323816,35.370324 272.829456,35.830764 L272.829456,67.230324 C272.829456,77.236884 274.094856,79.651404 277.085016,80.456364 L277.545096,80.571564 L277.545096,82.872324 C275.590656,82.872324 268.343496,82.757124 264.663936,82.757124 C261.098136,82.757124 253.621656,82.872324 251.667216,82.872324 L251.667216,80.571564 L252.701496,80.227044 C255.922416,79.190964 256.842936,77.581404 256.842936,65.389644 L256.842936,44.916804 C256.842936,37.902204 255.691656,35.716644 252.932256,33.531444 L251.781336,32.611284 L251.781336,30.655044 L271.219896,26.054964 L272.829456,27.320004 L272.829456,33.071364 C277.200216,28.700604 282.491496,26.284644 287.320536,26.284644 C294.912216,26.284644 298.707336,31.460004 298.707336,41.581764 L298.707336,65.389644 C298.707336,77.696964 299.512296,79.306524 302.962536,80.456364 L303.307416,80.571564 L303.307416,82.872324 Z" id="Fill-7" fill="#191919"></path>
                <path d="M334.931688,77.466024 C331.710768,81.376704 326.650608,83.561904 321.474888,83.561904 C313.538328,83.561904 308.018088,79.766784 308.018088,69.760584 L308.018088,33.531264 L301.577688,33.531264 L301.577688,30.310344 L309.167928,26.399664 L318.369168,9.148104 L324.004968,9.148104 L324.004968,27.550944 L334.011168,27.550944 L334.011168,33.531264 L324.004968,33.531264 L324.004968,70.449984 C324.004968,74.935944 325.961208,76.316544 328.375728,76.316544 C329.985288,76.316544 331.481448,76.085784 333.206568,74.935944 L334.931688,77.466024 Z" id="Fill-9" fill="#191919"></path>
                <path d="M412.653024,61.363728 L409.087224,82.757088 L399.656304,82.757088 C394.711704,82.757088 381.484224,82.641528 378.494064,82.641528 C375.503904,82.641528 363.541464,82.872288 361.702224,82.872288 L361.702224,80.571528 L363.427704,79.995888 C368.487504,78.270768 369.523224,76.545648 369.523224,61.249968 L369.523224,25.595208 C369.523224,10.297368 368.487504,8.572248 363.427704,6.847128 L361.702224,6.273288 L361.702224,3.972528 C363.312144,3.972528 374.123304,4.201848 377.113464,4.201848 C380.334744,4.201848 394.020864,3.972528 395.630424,3.972528 L395.630424,6.273288 L392.871024,7.078248 C387.120024,8.803368 386.544384,10.183968 386.544384,25.595208 L386.544384,64.584648 C386.544384,76.661208 388.845144,78.731208 392.755464,78.731208 L393.215904,78.731208 C396.895464,78.731208 401.036904,75.280608 406.672704,66.539088 L410.007384,61.363728 L412.653024,61.363728 Z" id="Fill-11" fill="#191919"></path>
                <path d="M439.677288,46.872864 C439.330968,34.796664 438.181488,29.965824 434.270808,29.965824 C430.475688,29.965824 428.290488,34.910424 428.405688,46.872864 L439.677288,46.872864 Z M428.750568,51.012864 C429.784848,65.389824 436.227048,73.900224 444.506688,73.900224 C446.578128,73.900224 448.992648,73.441584 453.134088,68.840064 L454.512888,70.910064 C448.303248,80.571744 442.896768,83.792664 434.501928,83.792664 C423.804528,83.792664 414.489168,74.246544 414.489168,56.303784 C414.489168,37.786824 425.300328,25.824384 437.261328,25.824384 C449.683488,25.824384 455.204088,35.256744 455.433408,51.012864 L428.750568,51.012864 Z" id="Fill-13" fill="#191919"></path>
                <g id="Group-17" transform="translate(473.040000, 3.863520)">
                    <mask id="mask-2" fill="white">
                        <use xlink:href="#path-1"></use>
                    </mask>
                    <g id="Clip-16"></g>
                    <path d="M35.983332,2.409696 L34.028892,2.983896 C29.082492,4.479696 28.508292,5.629176 28.508292,21.731616 L28.508292,61.757136 C28.508292,79.353576 21.837132,85.909536 1.250172,93.960216 L0.330012,91.660896 C9.416052,86.139216 11.601252,79.929216 11.601252,68.426856 L11.601252,21.731616 C11.601252,5.629176 11.256372,4.364136 6.310332,2.983896 L4.240332,2.409696 L4.240332,0.108936 C5.734692,0.108936 17.006292,0.338256 19.996452,0.338256 C23.102172,0.338256 34.373412,0.108936 35.983332,0.108936 L35.983332,2.409696 Z" id="Fill-15" fill="#191919" mask="url(#mask-2)"></path>
                </g>
                <path d="M529.723872,29.850228 C525.124152,29.850228 524.203632,34.451748 524.203632,49.978548 C524.203632,68.379948 525.468672,79.766748 531.219672,79.766748 C535.590432,79.766748 536.510952,75.280788 536.510952,59.753988 C536.510952,41.352588 535.245912,29.850228 529.723872,29.850228 M530.183952,83.792628 C516.037752,83.792628 507.411792,73.210788 507.411792,54.463068 C507.411792,38.820708 515.922552,25.824348 530.414712,25.824348 C544.676472,25.824348 553.302432,36.521748 553.302432,55.038708 C553.302432,70.910028 545.021352,83.792628 530.183952,83.792628" id="Fill-18" fill="#191919"></path>
                <path d="M606.087648,82.872324 C601.832448,82.757124 592.401528,82.872324 587.225808,82.986084 L585.385488,76.431924 C581.014728,80.802324 575.723808,83.446524 570.894408,83.446524 C563.302728,83.446524 559.507608,78.157044 559.507608,67.919724 L559.507608,45.032364 C559.507608,38.247084 558.816408,36.521604 555.481728,33.645204 L554.561208,32.840244 L554.561208,31.001364 L573.884568,26.399844 L575.723808,27.780444 L575.723808,64.929564 C575.723808,71.716284 577.795248,74.360124 581.819688,74.360124 C582.855408,74.360124 584.349768,74.246724 585.385488,73.900404 L585.385488,46.068084 C585.385488,39.051684 583.775568,36.406404 580.325328,33.645204 L579.289608,32.840244 L579.289608,31.001364 L599.762448,26.399844 L601.372008,27.780444 L601.372008,65.389644 C601.372008,77.696964 602.176968,79.306524 605.742768,80.456364 L606.087648,80.571564 L606.087648,82.872324 Z" id="Fill-20" fill="#191919"></path>
                <path d="M641.91114,42.502068 C639.72594,42.502068 636.9651,42.157188 630.63954,40.892508 L628.45434,42.731388 L628.45434,65.160468 C628.45434,77.696748 629.2593,78.961788 635.01066,80.456148 L635.47074,80.571708 L635.47074,82.872468 C633.5145,82.872468 623.85282,82.756908 620.17326,82.756908 C616.4919,82.756908 609.24654,82.872468 607.2921,82.872468 L607.2921,80.571708 L608.32602,80.227188 C611.77662,79.075908 612.46746,77.581548 612.46746,65.389788 L612.46746,44.916948 C612.46746,37.902348 611.66286,35.946108 608.55714,33.531588 L607.40586,32.611068 L607.40586,30.655188 L626.84478,26.055108 L628.45434,27.320148 L628.45434,38.706948 C634.31946,27.780228 636.62022,26.170668 640.41534,26.170668 C644.21046,26.170668 646.39566,28.815948 646.39566,33.300468 C646.39566,40.316868 644.32602,42.502068 641.91114,42.502068" id="Fill-22" fill="#191919"></path>
                <g id="Group-26" transform="translate(0.000000, 3.863520)">
                    <mask id="mask-4" fill="white">
                        <use xlink:href="#path-3"></use>
                    </mask>
                    <g id="Clip-25"></g>
                    <path d="M50.950764,57.500208 L47.384964,78.893568 L37.954044,78.893568 C33.008004,78.893568 19.781964,78.778008 16.791804,78.778008 C13.801644,78.778008 1.839204,79.008768 -3.6e-05,79.008768 L-3.6e-05,76.708008 L1.725084,76.132368 C6.785244,74.407248 7.820964,72.682128 7.820964,57.386448 L7.820964,21.731688 C7.820964,6.433848 6.785244,4.708728 1.725084,2.983608 L-3.6e-05,2.409768 L-3.6e-05,0.109008 C1.609884,0.109008 12.421044,0.338328 15.411204,0.338328 C18.632484,0.338328 32.318604,0.109008 33.928164,0.109008 L33.928164,2.409768 L31.168764,3.214728 C25.417764,4.939848 24.842124,6.320448 24.842124,21.731688 L24.842124,60.721128 C24.842124,72.797688 27.142884,74.867688 31.053204,74.867688 L31.513644,74.867688 C35.193204,74.867688 39.334644,71.417088 44.970444,62.675568 L48.305124,57.500208 L50.950764,57.500208 Z" id="Fill-24" fill="#191919" mask="url(#mask-4)"></path>
                </g>
                <polygon id="Fill-27" fill="#191919" points="43.903872 20.88414 47.574072 24.64866 59.620752 11.66094 50.209632 2.1555 41.739192 12.97854 46.068552 17.87238"></polygon>
                <polygon id="Fill-29" fill="#191919" points="204.433776 11.639808 195.074136 2.267928 185.547456 11.782008 194.907456 21.153888"></polygon>
                <polygon id="Fill-31" fill="#191919" points="357.43626 47.657736 342.46458 50.862456 342.46458 44.337816 357.43626 41.133096"></polygon>
                <path d="M99.417312,69.901452 L99.417312,53.088372 C101.857752,50.670612 110.832912,47.341692 122.236992,52.058052 C118.892952,61.795692 110.051352,68.976612 99.417312,69.901452 L99.417312,69.901452 Z M94.753872,69.901452 C90.477432,69.529572 86.492232,68.147532 83.036592,65.991852 L90.211752,56.988252 L90.211752,17.737812 C91.679832,17.345772 93.197592,17.078652 94.753872,16.943292 L94.753872,69.901452 Z M119.502792,29.130372 C111.224952,33.244092 102.611232,32.245452 99.417312,30.894012 L99.417312,16.943292 C107.861832,17.677692 115.174152,22.358412 119.502792,29.130372 L119.502792,29.130372 Z M123.672672,43.422372 C123.672672,44.676972 123.582672,45.910332 123.414552,47.118852 C113.407272,42.713172 104.118552,45.639972 99.417312,47.813652 L99.417312,35.438652 C101.713392,36.139572 105.002712,36.864252 108.793512,36.864252 C112.768632,36.864252 117.295272,36.063972 121.800312,33.605892 C123.008112,36.642492 123.672672,39.954492 123.672672,43.422372 L123.672672,43.422372 Z M77.614992,61.518492 C73.201752,56.772252 70.498872,50.414292 70.498872,43.422372 C70.498872,36.430452 73.201752,30.072492 77.614992,25.326612 L77.614992,61.518492 Z M97.085592,0.000252 C93.262752,0.000252 89.557272,0.498492 86.025312,1.426572 C83.269152,15.191892 71.476992,25.690932 57.096072,26.475732 C54.886392,31.682772 53.663472,37.409652 53.663472,43.422372 C53.663472,67.404132 73.104192,86.844852 97.085592,86.844852 C106.653672,86.844852 115.493832,83.743092 122.669712,78.500052 C122.518152,77.251572 122.431032,75.983652 122.431032,74.694132 C122.431032,62.183412 129.780792,51.393132 140.395392,46.393092 C140.461992,45.410292 140.508072,44.422092 140.508072,43.422372 C140.508072,19.440972 121.067352,0.000252 97.085592,0.000252 L97.085592,0.000252 Z" id="Fill-33" fill="#191919"></path>
            </g>
        </g>
    </g>
</svg>